<svg xmlns="http://www.w3.org/2000/svg" version="1.1" xmlns:xlink="http://www.w3.org/1999/xlink" xmlns:svgjs="http://svgjs.dev/svgjs" width="1000" height="625" viewBox="0 0 1000 625"><g transform="matrix(1,0,0,1,0,0)"><svg viewBox="0 0 512 320" data-background-color="#8abe53" preserveAspectRatio="xMidYMid meet" height="625" width="1000" xmlns="http://www.w3.org/2000/svg" xmlns:xlink="http://www.w3.org/1999/xlink"><g id="tight-bounds" transform="matrix(1,0,0,1,0,0)"><svg viewBox="0 0 512 320" height="320" width="512"><g><svg></svg></g><g><svg viewBox="0 0 512 320" height="320" width="512"><g><path xmlns="http://www.w3.org/2000/svg" d="M96 160c0-88.366 71.634-160 160-160 88.366 0 160 71.634 160 160 0 88.366-71.634 160-160 160-88.366 0-160-71.634-160-160z" fill="#4d7e3e" fill-rule="nonzero" stroke="none" stroke-width="1" stroke-linecap="butt" stroke-linejoin="miter" stroke-miterlimit="10" stroke-dasharray="" stroke-dashoffset="0" font-family="none" font-weight="none" font-size="none" text-anchor="none" style="mix-blend-mode: normal" data-fill-palette-color="tertiary"></path></g><g transform="matrix(1,0,0,1,154.39246922519914,80)"><svg viewBox="0 0 203.21506154960173 160" height="160" width="203.21506154960173"><g><svg viewBox="0 0 203.21506154960173 160" height="160" width="203.21506154960173"><g><svg viewBox="0 0 203.21506154960173 160" height="160" width="203.21506154960173"><g id="textblocktransform"><svg viewBox="0 0 203.21506154960173 160" height="160" width="203.21506154960173" id="textblock"><g><svg viewBox="0 0 203.21506154960173 160" height="160" width="203.21506154960173"><g transform="matrix(1,0,0,1,0,0)"><svg width="203.21506154960173" viewBox="2 -52.880001068115234 85.63999938964844 67.43000030517578" height="160" data-palette-color="#8abe53"><path d="M51.07-27.29L51.07-27.29Q51.07-24.51 50.71-21.9 50.34-19.29 49.66-16.6L49.66-16.6Q49.02-16.11 48.88-15.38 48.73-14.65 48.39-14.01L48.39-14.01Q48.1-13.48 47.61-12.87 47.12-12.26 46.53-11.6 45.95-10.94 45.36-10.25 44.78-9.57 44.38-8.89L44.38-8.89Q42.92-8.4 42.29-6.79L42.29-6.79Q41.5-6.49 40.67-6.13 39.84-5.76 39.5-4.88L39.5-4.88Q37.7-3.96 36.11-2.76 34.52-1.56 32.67-0.68L32.67-0.68Q32.42-0.44 32.1-0.32 31.79-0.2 31.47-0.05 31.15 0.1 30.88 0.32 30.62 0.54 30.57 0.88L30.57 0.88Q30.37 0.88 30.3 0.81 30.22 0.73 29.98 0.68L29.98 0.68Q29.44 0.98 29.49 1.61L29.49 1.61Q29.3 1.51 28.96 1.51L28.96 1.51Q28.37 1.51 27.81 1.88 27.25 2.25 26.86 2.64L26.86 2.64Q26.27 2.93 25.51 3.22 24.76 3.52 24.41 4.2L24.41 4.2Q24.22 4 23.83 4L23.83 4Q23.39 4 22.9 4.27 22.41 4.54 22.17 4.88L22.17 4.88Q21.48 4.88 20.87 5.1 20.26 5.32 19.63 5.54 18.99 5.76 18.38 5.96 17.77 6.15 17.09 6.15L17.09 6.15Q16.7 6.15 16.5 5.96 16.31 5.76 16.02 5.62L16.02 5.62Q15.77 5.81 15.16 6.05 14.55 6.3 14.26 6.3L14.26 6.3Q13.72 6.3 13.21 6.15 12.7 6.01 12.16 5.81L12.16 5.81 11.13 5.47Q10.64 5.32 10.06 5.27L10.06 5.27Q9.62 4.88 9.01 4.47 8.4 4.05 7.81 4.2L7.81 4.2Q7.57 3.47 7.08 2.93 6.59 2.39 5.96 1.95L5.96 1.95Q5.81 1.86 5.64 1.78 5.47 1.71 5.37 1.61L5.37 1.61Q5.13 1.46 4.93 1.03 4.74 0.59 4.49 0.59L4.49 0.59Q4.44 0.59 4.37 0.63 4.3 0.68 4.25 0.68L4.25 0.68Q4.15 0.24 3.96-0.17 3.76-0.59 3.27-0.68L3.27-0.68Q2.88-1.95 2.73-3.22 2.59-4.49 2.34-5.76L2.34-5.76Q2.25-6.15 2.12-6.71 2-7.28 2-7.71L2-7.71Q2-8.45 2.22-9.47 2.44-10.5 2.59-11.28L2.59-11.28Q3.17-14.11 4.15-16.77 5.13-19.43 6.27-22.07 7.42-24.71 8.64-27.29 9.86-29.88 10.94-32.57L10.94-32.57Q11.13-32.57 11.18-32.67L11.18-32.67 11.33-32.91Q11.43-33.06 11.5-33.15 11.57-33.25 11.82-33.25L11.82-33.25 11.82-33.4Q11.77-33.69 11.94-33.89 12.11-34.08 12.01-34.52L12.01-34.52Q12.79-35.4 13.33-36.5 13.87-37.6 14.43-38.67 14.99-39.75 15.63-40.77 16.26-41.8 17.24-42.53L17.24-42.53 17.24-42.87Q17.19-43.12 17.26-43.38 17.33-43.65 17.58-43.75L17.58-43.75Q18.46-44.63 19.04-45.51 19.63-46.39 20.24-47.24 20.85-48.1 21.61-48.85 22.36-49.61 23.54-50.24L23.54-50.24Q24.07-50.49 24.32-50.98 24.56-51.46 24.95-51.66L24.95-51.66Q25.15-51.76 25.37-51.78 25.59-51.81 25.78-51.9L25.78-51.9Q26.61-52.15 27.44-52.51 28.27-52.88 29.2-52.88L29.2-52.88Q30.37-52.88 30.98-52.22 31.59-51.56 31.96-50.63 32.32-49.71 32.57-48.68 32.81-47.66 33.35-46.92L33.35-46.92Q34.81-46.83 36.33-46.61 37.84-46.39 38.96-45.36L38.96-45.36Q39.06-45.31 39.21-45.31L39.21-45.31Q39.45-45.31 39.45-45.51 39.45-45.7 39.7-45.7L39.7-45.7 39.84-45.7Q41.31-44.82 42.65-43.77 43.99-42.72 45.31-41.6L45.31-41.6Q45.56-41.41 45.83-41.24 46.09-41.06 46.29-40.82L46.29-40.82Q46.53-40.53 46.75-40.14 46.97-39.75 47.17-39.45L47.17-39.45Q49.61-35.21 50.44-30.32L50.44-30.32Q50.54-29.79 50.61-29.3 50.68-28.81 50.68-28.37L50.68-28.37Q50.68-27.93 50.88-27.81 51.07-27.69 51.07-27.29ZM47.31-24.8L47.31-24.8Q47.31-26.76 46.83-28.56L46.83-28.56Q47.07-28.66 47.14-28.88 47.22-29.1 47.22-29.35L47.22-29.35 47.22-29.59 46.63-30.66Q46.58-31.35 46.36-31.93 46.14-32.52 45.85-33.11 45.56-33.69 45.29-34.28 45.02-34.86 44.92-35.55L44.92-35.55Q44.14-36.13 43.53-36.89 42.92-37.65 42.43-38.48L42.43-38.48Q42.09-38.62 41.8-38.67 41.5-38.72 41.6-39.21L41.6-39.21Q40.72-39.45 40.01-39.92 39.31-40.38 38.62-40.97L38.62-40.97Q37.5-41.21 36.4-41.58 35.3-41.94 34.18-41.94L34.18-41.94Q33.4-41.94 32.67-41.65L32.67-41.65Q32.91-41.26 32.91-40.8 32.91-40.33 33.01-39.89L33.01-39.89Q34.57-39.5 34.91-37.99L34.91-37.99Q34.67-37.84 34.47-37.62 34.28-37.4 34.11-37.23 33.94-37.06 33.69-36.91 33.45-36.77 33.11-36.77L33.11-36.77Q32.42-36.77 32.06-37.01 31.69-37.26 30.91-37.11L30.91-37.11Q30.08-37.84 29.3-38.65 28.52-39.45 27.54-40.09L27.54-40.09Q27.39-40.58 27.08-40.97 26.76-41.36 26.44-41.72 26.12-42.09 25.85-42.5 25.59-42.92 25.59-43.46L25.59-43.46Q25.59-43.8 25.63-43.95L25.63-43.95Q25.34-44.04 25.2-44.04L25.2-44.04Q24.8-44.04 24.46-43.77 24.12-43.51 23.68-43.41L23.68-43.41Q23.29-42.24 22.56-41.36 21.83-40.48 21.04-39.65 20.26-38.82 19.6-37.92 18.95-37.01 18.65-35.69L18.65-35.69Q17.09-33.74 15.77-31.27 14.45-28.81 13.77-26.46L13.77-26.46Q12.65-25.2 12.01-23.78 11.38-22.36 11.28-20.65L11.28-20.65Q11.04-20.51 10.89-20.26L10.89-20.26 10.4-19.29Q10.3-19.04 10.06-18.9L10.06-18.9 10.06-18.65Q10.06-18.26 9.91-17.94 9.77-17.63 9.59-17.33 9.42-17.04 9.28-16.77 9.13-16.5 9.13-16.16L9.13-16.16Q9.13-15.77 9.33-15.38L9.33-15.38Q8.79-15.28 8.62-14.82 8.45-14.36 8.15-14.01L8.15-14.01Q7.96-12.45 7.76-10.84 7.57-9.23 7.57-7.67L7.57-7.67Q7.57-5.86 7.96-4L7.96-4Q8.4-3.56 8.74-3.03 9.08-2.49 9.45-2 9.81-1.51 10.25-1.15 10.69-0.78 11.43-0.68L11.43-0.68Q11.43-0.34 11.57-0.2 11.72-0.05 11.82 0.2L11.82 0.2Q12.84 0.54 13.96 0.76 15.09 0.98 16.21 0.98L16.21 0.98Q16.99 0.98 17.8 0.78 18.6 0.59 19.14 0L19.14 0Q21.63-0.1 24.1-1.17 26.56-2.25 28.61-3.52L28.61-3.52 29.64-3.52Q30.18-4.25 30.96-4.71 31.74-5.18 32.57-5.57L32.57-5.57Q32.71-5.66 32.96-5.76 33.2-5.86 33.35-5.96L33.35-5.96Q33.89-6.35 34.45-6.84 35.01-7.32 35.6-7.76L35.6-7.76Q36.57-8.5 37.6-9.18 38.62-9.86 39.58-10.64 40.53-11.43 41.38-12.33 42.24-13.23 42.82-14.36L42.82-14.36Q43.12-14.36 43.29-14.53 43.46-14.7 43.58-14.89 43.7-15.09 43.87-15.23 44.04-15.38 44.38-15.38L44.38-15.38Q44.38-15.82 44.56-16.14 44.73-16.46 44.95-16.72 45.17-16.99 45.39-17.24 45.61-17.48 45.8-17.87L45.8-17.87 45.8-19.24Q46.58-20.51 46.95-21.92 47.31-23.34 47.31-24.8ZM87.64-41.36L87.64-41.36Q87.64-37.84 86.98-34.4 86.33-30.96 85.89-27.49L85.89-27.49Q85.64-27.15 85.37-26.93 85.1-26.71 84.86-26.46L84.86-26.46 84.86-25.98Q84.86-25.29 84.67-24.61L84.67-24.61 84.32-23.29Q84.18-22.66 84.08-22 83.98-21.34 84.18-20.65L84.18-20.65Q83.59-19.24 83.3-17.75 83.01-16.26 82.79-14.75 82.57-13.23 82.32-11.72 82.08-10.21 81.64-8.74L81.64-8.74 81.69-8.01Q81.78-6.45 81.47-4.88 81.15-3.32 81.15-1.76L81.15-1.76Q81.15-0.73 81.22 0.24 81.3 1.22 81.3 2.2L81.3 2.2Q81.3 3.27 81.15 4.2L81.15 4.2Q81.54 4.69 81.74 5.32L81.74 5.32 82.18 6.59Q82.42 7.23 82.71 7.76 83.01 8.3 83.59 8.59L83.59 8.59Q84.13 8.35 84.59 8.18 85.06 8.01 85.59 8.01L85.59 8.01Q86.37 8.01 86.96 8.45L86.96 8.45Q87.06 8.94 87.03 9.47 87.01 10.01 87.11 10.55L87.11 10.55Q86.62 11.04 86.01 11.38 85.4 11.72 84.86 12.11L84.86 12.11Q84.86 12.21 84.89 12.33 84.91 12.45 84.91 12.55L84.91 12.55Q84.91 13.53 84.2 14.04 83.49 14.55 82.66 14.55L82.66 14.55Q82.42 14.55 81.98 14.45 81.54 14.36 81.3 14.21L81.3 14.21Q79.98 13.33 79 11.82 78.02 10.3 77.41 8.54 76.8 6.79 76.49 4.96 76.17 3.13 76.17 1.66L76.17 1.66 76.17 0.59Q76.17 0.05 76.27-0.49L76.27-0.49Q76.32-0.88 76.46-1.1 76.61-1.32 76.61-1.76L76.61-1.76Q76.61-4.35 76.93-6.93 77.24-9.52 77.63-12.13 78.02-14.75 78.39-17.33 78.76-19.92 78.85-22.56L78.85-22.56Q78.32-22.41 78.02-21.9 77.73-21.39 77.1-21.14L77.1-21.14Q75.97-19.53 74.48-18.29 73-17.04 71.73-15.53L71.73-15.53Q71.04-15.23 70.41-14.89 69.77-14.55 69.24-14.01L69.24-14.01Q67.58-13.87 66.45-12.74L66.45-12.74 66.01-12.79Q65.38-12.79 64.84-12.4L64.84-12.4Q64.45-12.4 64.08-12.55 63.72-12.7 63.33-12.7L63.33-12.7Q62.89-12.7 62.6-12.4L62.6-12.4Q61.18-12.74 60.2-13.5 59.23-14.26 58.42-15.16 57.61-16.06 56.81-17.02 56-17.97 54.93-18.7L54.93-18.7Q54.64-19.82 54.39-20.73 54.15-21.63 53.98-22.51 53.81-23.39 53.68-24.34 53.56-25.29 53.56-26.51L53.56-26.51Q53.56-29.83 53.85-33.08 54.15-36.33 54.54-39.55L54.54-39.55Q55.32-40.87 55.69-42.41 56.05-43.95 56.37-45.51 56.69-47.07 57.1-48.58 57.52-50.1 58.4-51.32L58.4-51.32 58.74-51.32Q59.27-51.32 59.74-51.25 60.2-51.17 60.64-51.32L60.64-51.32Q61.33-50.1 61.33-48.58L61.33-48.58Q61.33-47.61 61.11-46.63 60.89-45.65 60.62-44.7 60.35-43.75 60.1-42.77 59.86-41.8 59.81-40.82L59.81-40.82Q59.52-40.38 59.4-39.89 59.27-39.4 58.88-39.06L58.88-39.06 58.93-38.38Q59.03-37.3 58.66-36.33 58.3-35.35 58.2-34.28L58.2-34.28Q58.15-33.74 58.23-33.2 58.3-32.67 58.3-32.13L58.3-32.13Q58.3-30.86 58.23-29.64 58.15-28.42 58.15-27.15L58.15-27.15Q58.15-26.22 58.35-25.37 58.54-24.51 58.54-24.07L58.54-24.07Q58.54-23.73 58.4-23.44L58.4-23.44Q58.54-22.95 58.79-22.56L58.79-22.56 59.27-21.83Q59.52-21.48 59.71-21.07 59.91-20.65 59.96-20.12L59.96-20.12Q61.91-18.31 64.74-18.31L64.74-18.31Q66.35-18.31 67.89-19.24 69.43-20.17 70.87-21.48 72.31-22.8 73.65-24.19 75-25.59 76.27-26.46L76.27-26.46Q76.71-27.34 77.41-28.39 78.12-29.44 78.85-30.54 79.59-31.64 80.17-32.69 80.76-33.74 80.95-34.67L80.95-34.67Q81.05-35.11 81.05-35.6 81.05-36.08 81.15-36.62L81.15-36.62Q81.39-38.33 81.76-40.04 82.13-41.75 82.13-43.51L82.13-43.51Q82.13-43.85 82.1-44.14 82.08-44.43 82.03-44.82L82.03-44.82Q82.42-45.31 82.81-45.73 83.2-46.14 83.44-46.73L83.44-46.73Q84.08-46.63 84.62-46.7 85.15-46.78 85.74-46.78L85.74-46.78Q86.47-46.78 87.11-46.39L87.11-46.39Q87.64-43.8 87.64-41.36Z" opacity="1" transform="matrix(1,0,0,1,0,0)" fill="#8abe53" class="wordmark-text-0" data-fill-palette-color="quaternary" id="text-0"></path></svg></g></svg></g></svg></g></svg></g></svg></g></svg></g></svg></g><defs></defs></svg><rect width="512" height="320" fill="none" stroke="none" visibility="hidden"></rect></g></svg></g></svg>